<svg width="18" height="26" viewBox="0 0 18 26" fill="none" xmlns="http://www.w3.org/2000/svg">
<path d="M10 22H8C7.4 22 7 22.4 7 23V25C7 25.6 7.4 26 8 26H10C10.6 26 11 25.6 11 25V23C11 22.4 10.6 22 10 22Z" fill="#DADADA"/>
<path d="M9 0C4 0 0 4 0 9C0 9.5 -9.68575e-08 10 0.0999999 10.5C0.2 11.1 0.8 11.4 1.4 11.3L3.3 10.7C3.8 10.6 4.1 10.1 4 9.6C4 9.4 4 9.2 4 9C4 6.2 6.2 4 9 4C11.8 4 14 6.2 14 9C14 10.7 13 11.5 11.2 13C9.5 14.4 7.5 16 7 18.9C6.9 19.5 7.4 20 8 20H10C10.5 20 10.9 19.7 11 19.2C11.3 18 12.2 17.2 13.7 16.1C15.6 14.6 18 12.7 18 9C18 4 14 0 9 0Z" fill="#DADADA"/>
</svg>
