<svg width="23" height="25" viewBox="0 0 23 25" fill="none" xmlns="http://www.w3.org/2000/svg">
<path d="M9.35311 1.93604C10.982 0.690217 13.1385 0 15.4231 0C17.0915 0 18.7104 0.371119 20.1041 1.0711L20.1074 1.07244L20.111 1.07418C20.4707 1.2367 20.6956 1.59503 20.6956 1.97859C20.6956 2.07275 20.6821 2.16888 20.6535 2.2649C20.5676 2.54744 20.3597 2.77935 20.0866 2.89519C19.9596 2.9489 19.8253 2.97546 19.6922 2.97546C19.5354 2.97546 19.3783 2.93884 19.2361 2.86602C18.3589 2.41963 17.3663 2.1397 16.3252 2.03659C15.4975 1.87489 14.6446 1.79079 13.7817 1.79079C11.7651 1.79079 9.82734 2.24014 8.15506 3.07741C8.49863 2.6702 8.8959 2.28693 9.35311 1.93604ZM21.926 18.0355C21.926 17.7216 21.7784 17.4142 21.5017 17.2203C21.326 17.0975 21.1247 17.0375 20.9261 17.0375C20.6103 17.038 20.3001 17.1851 20.1058 17.4603C19.6021 18.1708 19.0603 18.7166 18.4541 19.1238C17.7431 19.5996 16.6187 20.3328 16.6103 20.3396L16.6097 20.3407C16.3265 20.5246 16.1567 20.8365 16.1567 21.1716L16.1588 22.4956L13.0799 21.1903C12.9571 21.1382 12.8238 21.1105 12.6882 21.1105L12.632 21.1124C12.4009 21.1257 12.1674 21.1319 11.9362 21.1319C8.51473 21.1301 5.38866 19.738 3.77026 17.4622L3.7594 17.4489L3.76916 17.4622C3.73783 17.4173 3.70022 17.3757 3.65995 17.3355L3.64966 17.3244L3.64053 17.3116C3.00251 16.3685 2.67051 15.3469 2.67103 14.2808C2.67103 12.3838 3.72138 10.6727 5.39075 9.44595C7.06245 8.2174 9.35834 7.46098 11.8879 7.46098C13.7298 7.46098 15.5093 7.86488 17.0376 8.63164L17.0876 8.65553L17.0897 8.65606C17.8536 9.04601 18.4672 9.54459 18.8926 10.111C19.3185 10.6761 19.555 11.3107 19.555 11.9613C19.5539 13.0153 18.949 14.0174 17.8873 14.7826C16.7094 15.6325 15.1344 16.0948 13.4504 16.0948C13.0251 16.0948 12.5994 16.0641 12.1869 16.0047L12.1725 16.0019H12.1719C10.9919 15.8234 9.86506 15.4374 8.90637 14.8818L8.88579 14.8718L8.88079 14.8693C7.01084 13.7651 5.91584 12.1209 5.91584 10.3473C5.91584 10.2095 5.92386 10.0729 5.937 9.93756C5.1639 10.4881 4.53837 11.1446 4.10581 11.8676C4.58173 13.7498 5.92886 15.4629 7.92256 16.6212L7.99702 16.6583L8.00028 16.6595C9.15246 17.3094 10.4939 17.7647 11.8852 17.974L11.9097 17.9773H11.9108C12.4154 18.0495 12.9338 18.0869 13.4499 18.0869C15.5612 18.0869 17.5558 17.4831 19.063 16.3936C20.6814 15.2251 21.5567 13.6547 21.5581 11.9613C21.5587 9.90629 20.2213 7.99548 17.9448 6.85451L17.8928 6.82952L17.8909 6.82871C16.1008 5.94 14.0253 5.46896 11.8875 5.46896C8.93537 5.46844 6.15066 6.35849 4.05042 7.9645C1.86142 9.64148 0.667271 11.8804 0.666748 14.2812C0.666748 15.7887 1.15557 17.2741 2.08398 18.5822C2.12263 18.6345 2.16808 18.6847 2.21784 18.7324L2.22981 18.7422L2.23725 18.7536C4.23119 21.443 7.93006 23.1242 11.9363 23.1229C12.1132 23.1229 12.2917 23.1199 12.4707 23.1134L12.5059 23.1121L16.7626 24.9217C16.8891 24.974 17.0225 24.9998 17.1565 24.9998C17.3502 24.9998 17.5428 24.9451 17.7077 24.8357C17.9881 24.6513 18.1577 24.3388 18.1577 24.0057L18.1601 21.7108L18.2312 21.6628C18.6251 21.4045 19.166 21.0486 19.5735 20.7763C20.371 20.2422 21.1007 19.5146 21.7425 18.6083C21.8674 18.4337 21.926 18.2335 21.926 18.0355ZM13.7939 13.6825L13.77 13.8385L13.795 13.6825L13.801 13.6833C14.2442 13.7479 14.7005 13.7799 15.1568 13.7799C16.3423 13.7799 17.4843 13.5596 18.4966 13.1576C18.7397 12.7681 18.8683 12.3609 18.8688 11.952C18.8688 11.5962 18.7668 11.2413 18.5818 10.8978C17.6383 11.4623 16.4247 11.7873 15.1567 11.7873C14.7959 11.7873 14.4362 11.7625 14.0895 11.712C11.7355 11.3611 9.86117 10.1262 9.08481 8.5147C8.41534 8.68616 7.78365 8.91674 7.20218 9.19695C8.20702 11.4525 10.6657 13.2172 13.7939 13.6825ZM22.3334 8.33173C22.3334 6.5156 21.1674 4.82222 19.1769 3.80413L19.1124 3.77443L19.1118 3.77332C17.5284 2.97947 15.6914 2.55883 13.7971 2.55883C11.2005 2.55831 8.75222 3.34129 6.9047 4.75556C6.2808 5.23188 5.74961 5.76191 5.31548 6.33053C7.21113 5.32807 9.4275 4.77602 11.745 4.74974C12.4052 4.61885 13.0934 4.5505 13.7971 4.5505C15.397 4.5505 16.9389 4.90528 18.2592 5.57725L18.3115 5.60195L18.3143 5.60358C19.2116 6.07397 19.8557 6.72635 20.1513 7.45633C20.9919 8.20583 21.6106 9.09221 21.9636 10.0575C22.2037 9.50495 22.3334 8.92552 22.3334 8.33173Z" fill="#DADADA"/>
</svg>
