<svg width="29" height="29" viewBox="0 0 29 29" fill="none" xmlns="http://www.w3.org/2000/svg">
<path d="M25.6805 16.6849C25.7164 16.5097 25.8395 16.3651 26.0067 16.3017L28.9844 15.1831C28.9948 14.9759 29 14.7481 29 14.4995C29 14.251 28.9948 14.0231 28.9845 13.8159L26.0068 12.6974C25.8396 12.634 25.7165 12.4894 25.6806 12.3142C25.5813 11.8014 25.4463 11.2961 25.2767 10.802C25.2186 10.6322 25.2519 10.4444 25.3647 10.3048L27.3844 7.85021C27.2912 7.66387 27.1824 7.46183 27.0581 7.24954C26.9287 7.03204 26.8147 6.84043 26.7008 6.66439L23.5625 7.18741C23.385 7.21425 23.206 7.15002 23.0861 7.01652C22.7448 6.62338 22.3762 6.25476 21.9831 5.91344C21.8475 5.79495 21.7829 5.61472 21.8122 5.4371L22.3352 2.29887C22.1591 2.18496 21.9676 2.07106 21.7501 1.94158C21.5377 1.81731 21.3358 1.70856 21.1493 1.61533L18.6947 3.63496C18.5563 3.75028 18.3671 3.78376 18.1976 3.72298C17.7035 3.5534 17.1982 3.41842 16.6854 3.31908C16.5102 3.28317 16.3656 3.16009 16.3022 2.99288L15.1836 0.0150596C14.7641 -0.0056709 14.2359 -0.0056709 13.8165 0.0150596L12.6979 2.99271C12.6344 3.15992 12.4898 3.283 12.3146 3.31891C11.8018 3.41831 11.2966 3.55329 10.8025 3.72281C10.6329 3.78359 10.4438 3.75017 10.3054 3.63485L7.85073 1.61521C7.66433 1.70844 7.46235 1.81719 7.25 1.94146C7.0325 2.07094 6.84088 2.18485 6.66485 2.29875L7.18787 5.43704C7.21721 5.61472 7.15258 5.7949 7.01698 5.91344C6.62389 6.25482 6.25528 6.62344 5.91396 7.01652C5.79405 7.15002 5.61495 7.21425 5.43756 7.18741L2.29933 6.66433C2.18542 6.84043 2.07146 7.03198 1.94198 7.24948C1.81771 7.46177 1.70896 7.66375 1.61573 7.85016L3.63537 10.3048C3.74825 10.4444 3.7815 10.6321 3.72338 10.802C3.5538 11.2961 3.41883 11.8013 3.31948 12.3141C3.28357 12.4893 3.16043 12.6339 2.99329 12.6973L0.0155195 13.8159C0.0051543 14.0231 0 14.2509 0 14.4995C0 14.7481 0.0051543 14.976 0.0155195 15.1831L2.99317 16.3017C3.16038 16.3651 3.28346 16.5097 3.31937 16.6849C3.41871 17.1977 3.55369 17.703 3.72327 18.197C3.78138 18.3668 3.74814 18.5546 3.63525 18.6942L1.61562 21.1488C1.70885 21.3352 1.8176 21.5372 1.94187 21.7495C2.07135 21.967 2.18525 22.1587 2.29921 22.3347L5.43744 21.8117C5.6149 21.7848 5.79394 21.8491 5.91385 21.9826C6.25516 22.3756 6.62378 22.7443 7.01687 23.0856C7.15246 23.2041 7.21709 23.3843 7.18775 23.562L6.66473 26.7002C6.84083 26.8141 7.03239 26.9332 7.24989 27.0575C7.46223 27.1818 7.66416 27.2905 7.85062 27.3838L10.3053 25.3641C10.4437 25.2488 10.6329 25.2153 10.8024 25.2761C11.2965 25.4457 11.8018 25.5806 12.3146 25.68C12.4898 25.7159 12.6344 25.839 12.6978 26.0063L13.8164 28.9839C14.2359 29.0046 14.7641 29.0046 15.1835 28.9839L16.3021 26.0063C16.3655 25.839 16.5101 25.7159 16.6854 25.68C17.1982 25.5807 17.7034 25.4457 18.1975 25.2761C18.3671 25.2153 18.5562 25.2488 18.6946 25.3641L21.1493 27.3838C21.3357 27.2905 21.5377 27.1818 21.75 27.0575C21.9675 26.9332 22.1591 26.8141 22.3352 26.7002L21.8121 23.562C21.7828 23.3844 21.8474 23.2041 21.983 23.0856C22.3761 22.7443 22.7447 22.3757 23.086 21.9826C23.2059 21.8491 23.385 21.7849 23.5624 21.8117L26.7007 22.3348C26.8146 22.1587 26.9285 21.967 27.058 21.7496C27.1823 21.5373 27.291 21.3353 27.3843 21.1489L25.3646 18.6942C25.2517 18.5547 25.2185 18.3669 25.2766 18.1971C25.4462 17.703 25.5812 17.1977 25.6805 16.6849ZM14.6864 23.2979C14.6243 23.3031 14.5621 23.3031 14.5 23.3031H14.443C9.63463 23.2727 5.74036 19.3894 5.69652 14.5812C5.65268 9.77288 9.47547 5.81919 14.2825 5.70116C14.355 5.696 14.4275 5.696 14.5 5.696H14.557C19.3719 5.7254 23.2696 9.61825 23.305 14.4331C23.3404 19.2479 19.5004 23.1977 14.6864 23.2979Z" fill="#DADADA"/>
</svg>
