<svg width="28" height="28" viewBox="0 0 28 28" fill="none" xmlns="http://www.w3.org/2000/svg">
<path d="M12.6997 8.22061L12.6971 8.22413C12.4627 8.00887 12.1547 7.875 11.8125 7.875C11.088 7.875 10.5 8.463 10.5 9.18752C10.5 9.57078 10.6663 9.912 10.9279 10.1518L10.9253 10.1553L15.12 14L10.9252 17.8457L10.9278 17.8491C10.6662 18.088 10.5 18.4293 10.5 18.8125C10.5 19.537 11.088 20.125 11.8125 20.125C12.1546 20.125 12.4626 19.9912 12.6971 19.7768L12.6997 19.7803L17.9497 14.9678C18.2201 14.7184 18.375 14.3684 18.375 14C18.375 13.6317 18.2201 13.2817 17.9497 13.0323L12.6997 8.22061ZM14 0C6.26852 0 0 6.26852 0 14C0 21.7315 6.26852 28 14 28C21.7315 28 28 21.7315 28 14C28 6.26852 21.7315 0 14 0ZM14 25.375C7.728 25.375 2.625 20.272 2.625 14C2.625 7.728 7.728 2.625 14 2.625C20.272 2.625 25.375 7.728 25.375 14C25.375 20.272 20.272 25.375 14 25.375Z" fill="#DADADA"/>
</svg>
