<svg width="28" height="26" viewBox="0 0 28 26" fill="none" xmlns="http://www.w3.org/2000/svg">
<path d="M27.9302 0.924393H9.5407C9.50581 0.924393 9.47093 0.953645 9.47093 0.994599V2.64446C9.47093 2.67957 9.5 2.71467 9.5407 2.71467H27.9302C27.9651 2.71467 28 2.68542 28 2.64446V0.994599C28 0.953645 27.9709 0.924393 27.9302 0.924393Z" fill="white"/>
<path d="M9.5407 5.69847H18.6977C18.7326 5.69847 18.7674 5.66922 18.7674 5.62826V3.9784C18.7674 3.94329 18.7384 3.90819 18.6977 3.90819H9.5407C9.50581 3.90819 9.47093 3.93744 9.47093 3.9784V5.62826C9.47093 5.66922 9.5 5.69847 9.5407 5.69847Z" fill="white"/>
<path d="M27.9302 10.613H9.5407C9.50581 10.613 9.47093 10.6422 9.47093 10.6832V12.333C9.47093 12.3681 9.5 12.4032 9.5407 12.4032H27.9302C27.9651 12.4032 28 12.374 28 12.333V10.6832C28 10.6422 27.9709 10.613 27.9302 10.613Z" fill="white"/>
<path d="M9.5407 15.387H18.6977C18.7326 15.387 18.7674 15.3578 18.7674 15.3168V13.667C18.7674 13.6319 18.7384 13.5968 18.6977 13.5968H9.5407C9.50581 13.5968 9.47093 13.626 9.47093 13.667V15.3168C9.47093 15.3578 9.5 15.387 9.5407 15.387Z" fill="white"/>
<path d="M27.9302 20.3015H9.5407C9.50581 20.3015 9.47093 20.3308 9.47093 20.3717V22.0216C9.47093 22.0567 9.5 22.0918 9.5407 22.0918H27.9302C27.9651 22.0918 28 22.0626 28 22.0216V20.3717C28 20.3308 27.9709 20.3015 27.9302 20.3015Z" fill="white"/>
<path d="M18.6977 23.2912H9.5407C9.50581 23.2912 9.47093 23.3204 9.47093 23.3614V25.0113C9.47093 25.0464 9.5 25.0815 9.5407 25.0815H18.6977C18.7326 25.0815 18.7674 25.0522 18.7674 25.0113V23.3614C18.7616 23.3204 18.7326 23.2912 18.6977 23.2912Z" fill="white"/>
<path d="M3.01744 3.53375L1.5407 2.036L0 3.58056L3.01163 6.62286L4.55233 5.08416L8.07558 1.5504L6.54651 0L3.01744 3.53375Z" fill="white"/>
<path d="M3.01744 13.2223L1.5407 11.7246L0 13.2691L3.01163 16.3114L4.55233 14.7727L8.07558 11.239L6.54651 9.68857L3.01744 13.2223Z" fill="white"/>
<path d="M3.01744 22.9109L1.5407 21.4131L0 22.9577L3.01163 26L8.07558 20.9275L6.54651 19.3771L3.01744 22.9109Z" fill="white"/>
</svg>


