<svg width="16" height="35" viewBox="0 0 16 35" fill="none" xmlns="http://www.w3.org/2000/svg">
<path d="M14.2636 0.644043H2.26375C1.37805 0.644043 0.859979 1.20568 0.696735 1.86934C0.338506 2.13462 0.106275 2.56297 0.158422 3.17044C1.03343 13.3254 2.12139 23.4558 3.79788 33.5132C3.95902 34.4804 4.7111 34.8192 5.45363 34.7091C5.57542 34.7353 5.70368 34.7494 5.84263 34.7494H10.8952C12.0086 34.7494 12.5465 33.8653 12.5202 33.0026C12.5491 32.8909 12.5711 32.7715 12.5793 32.6441C13.2594 22.6305 14.8557 12.7197 15.9479 2.74921C15.979 2.46629 15.9453 2.22369 15.868 2.01575C15.7496 1.29005 15.2142 0.644043 14.2636 0.644043ZM9.30962 31.3809H6.84833C5.38125 22.3048 4.40097 13.1695 3.60079 4.01241H12.4329C11.3978 13.1375 10.0015 22.2198 9.30962 31.3809Z" fill="#EB5757"/>
</svg>
