<svg width="72" height="78" viewBox="0 0 72 78" fill="none" xmlns="http://www.w3.org/2000/svg">
<path d="M43.0301 0.0271157C42.9645 0.0212856 42.9068 0.0295449 42.8443 0.0287352C42.8403 0.0287352 42.8361 0.0271157 42.832 0.0271157C24.3105 -0.614686 4.84255 10.1492 6.52503 30.9763C6.53167 31.0606 6.55256 31.1353 6.56778 31.2138C6.54349 31.4294 6.54349 31.655 6.5958 31.9002C7.61138 36.653 6.05263 40.8315 2.1513 43.7452C1.97251 43.8784 1.8355 44.0314 1.71582 44.1909C1.32148 44.45 1.01021 44.8473 0.842434 45.3283C0.110591 47.4286 0.666558 49.5668 2.34499 51.0281C2.6216 51.2681 2.94209 51.4318 3.27554 51.5197C4.35897 52.1185 5.4918 52.5164 6.66819 52.7944C6.4264 54.0988 6.54527 55.4177 7.17347 56.6595C6.00048 58.9457 6.77913 61.4679 9.09498 62.8445C9.22568 62.9225 9.35604 62.981 9.48431 63.0262C9.87735 63.4942 9.91525 64.2458 9.77047 64.9687C9.72561 65.1898 9.71994 65.411 9.73678 65.6266C9.72658 65.8224 9.73273 66.0214 9.77047 66.2221C10.381 69.4243 13.1163 71.1924 16.2461 71.2493C16.4147 71.2527 16.5702 71.2352 16.7169 71.2055C16.8617 71.2122 17.0134 71.2039 17.17 71.1785C22.1964 70.3634 27.9193 70.819 29.8073 76.3396C30.1848 77.4425 31.1934 77.8166 32.0973 77.671C32.4019 77.8997 32.8029 78.0296 33.3083 77.9942C42.4164 77.3576 51.4444 76.0345 60.4881 74.8207C60.8081 74.7778 61.0852 74.6743 61.3244 74.5277C62.4208 74.1857 63.3063 72.9588 62.5983 71.6363C56.5555 60.3699 68.8054 48.0787 71.1303 37.2555C71.1813 37.0215 71.1822 36.8048 71.1616 36.5983C73.6188 18.822 61.3187 1.67429 43.0301 0.0271157ZM67.3038 35.8056C67.28 35.9701 67.2768 36.1275 67.2858 36.2788C64.7603 47.8595 53.6848 59.0552 58.0695 71.1811C49.8337 72.2995 41.6033 73.4475 33.3072 74.0281C33.2484 74.0322 33.1971 74.0479 33.1407 74.057C30.1756 67.4574 23.2765 66.274 16.4503 67.3078C16.3822 67.2995 16.3188 67.2846 16.2456 67.2831C15.4684 67.2682 15.0626 67.1878 14.4561 66.8177C14.5092 66.8342 14.1445 66.543 14.1478 66.5479C14.0956 66.4953 14.0631 66.464 14.0393 66.4434C14.0393 66.4277 14.0184 66.3809 13.9418 66.2567C13.8263 66.0716 13.7411 65.811 13.6703 65.5166C14.0223 63.0858 13.332 60.974 11.295 59.4197C11.1313 59.2955 10.948 59.2257 10.7585 59.1796C10.6997 59.1302 10.6426 59.0826 10.5809 59.0202C10.592 59.0251 10.5817 59.0005 10.5464 58.9436C10.5464 58.8934 10.543 58.8771 10.5373 58.8819C10.5616 58.7768 10.5849 58.6714 10.622 58.5693C10.6228 58.5653 10.9185 58.1065 11.0163 57.9682C11.2897 57.5824 11.3457 57.1146 11.2597 56.6647C11.341 56.2208 11.2832 55.757 11.0163 55.3704C10.266 54.2832 10.4136 53.358 11.0163 52.215C11.8795 50.5791 10.3247 49.086 8.94729 49.2389C8.93287 49.2371 8.92008 49.2322 8.90615 49.2298C7.50886 49.0455 6.15822 48.6367 4.94733 47.9131C4.86053 47.8621 4.77534 47.8309 4.69032 47.7922C4.62975 47.7042 4.57356 47.6145 4.52287 47.5217C4.51428 47.4961 4.50764 47.4739 4.49582 47.4377C4.48594 47.3917 4.47898 47.3612 4.47234 47.3316C4.46894 47.2404 4.47153 47.1507 4.47558 47.0594C4.48222 47.0347 4.49501 46.9779 4.51185 46.89C9.55087 42.9525 11.7153 37.5405 10.4892 31.2148C10.4916 31.1355 10.4999 31.0614 10.4932 30.9771C8.98081 12.2562 26.3972 3.42609 42.831 3.99501C42.8829 3.99663 42.9289 3.98756 42.9791 3.98594C42.9972 3.98756 43.0119 3.99323 43.0299 3.99501C58.632 5.40056 69.5267 20.6167 67.3038 35.8056Z" fill="#EB5757"/>
</svg>
