<svg width="18" height="12" viewBox="0 0 18 12" fill="none" xmlns="http://www.w3.org/2000/svg">
<path d="M8.61667 0C4.7 0 1.33167 2.42833 0 5.875C1.33167 9.32167 4.7 11.75 8.61667 11.75C12.5333 11.75 15.9017 9.32167 17.2333 5.875C15.9017 2.42833 12.5333 0 8.61667 0ZM8.61667 9.79167C6.42333 9.79167 4.7 8.06833 4.7 5.875C4.7 3.68167 6.42333 1.95833 8.61667 1.95833C10.81 1.95833 12.5333 3.68167 12.5333 5.875C12.5333 8.06833 10.81 9.79167 8.61667 9.79167ZM8.61667 3.525C7.285 3.525 6.26667 4.54333 6.26667 5.875C6.26667 7.20667 7.285 8.225 8.61667 8.225C9.94833 8.225 10.9667 7.20667 10.9667 5.875C10.9667 4.54333 9.94833 3.525 8.61667 3.525Z" fill="url(#paint0_linear)"/>
<defs>
<linearGradient id="paint0_linear" x1="-9.86627e-10" y1="6.19257" x2="17.2335" y2="6.17712" gradientUnits="userSpaceOnUse">
<stop stop-color="#FF8A00"/>
<stop offset="1" stop-color="#FC880D"/>
</linearGradient>
</defs>
</svg>
