<svg width="77" height="78" viewBox="0 0 77 78" fill="none" xmlns="http://www.w3.org/2000/svg">
<path d="M37.7429 67.0471L37.6958 45.3019L18.8309 34.3924L0 45.2625L0.0458906 67.1779L18.8309 78L37.7429 67.0471ZM20.7446 72.5101L20.7783 57.2849L33.8906 49.684L33.9242 64.8758L20.7446 72.5101ZM18.8282 38.7726L32.0046 46.3937L18.8729 54.0043L5.69615 46.3545L18.8282 38.7726ZM3.82565 49.6544L16.9628 57.2822L16.9294 72.5283L3.85726 64.9965L3.82565 49.6544Z" fill="#0099DD"/>
<path d="M58.0879 34.3936L39.2577 45.2624L39.3048 67.1779L58.0902 78L77 67.0471L76.9529 45.3019L58.0879 34.3936ZM58.0853 38.7726L71.262 46.3937L58.13 54.0043L44.953 46.3543L58.0853 38.7726ZM43.0829 49.6544L56.2187 57.2822L56.1852 72.5283L43.1164 64.9964L43.0829 49.6544ZM60.0029 72.5101L60.0353 57.2849L73.1476 49.684L73.1811 64.8758L60.0029 72.5101Z" fill="#0099DD"/>
<path d="M57.3674 10.9065L38.5019 0L19.6716 10.867L19.7169 32.7835L38.5019 43.6064L57.4123 32.6536L57.3674 10.9065ZM38.4994 4.37843L51.677 11.9977L38.5453 19.611L25.3678 11.9589L38.4994 4.37843ZM23.4967 15.2594L36.6338 22.8887L36.601 38.1347L23.5283 30.6041L23.4967 15.2594ZM40.415 38.1163L40.4481 22.8907L53.561 15.2886L53.5944 30.4816L40.415 38.1163Z" fill="#0099DD"/>
</svg>
