<svg width="19" height="11" viewBox="0 0 19 11" fill="none" xmlns="http://www.w3.org/2000/svg">
<path d="M18.9756 4.29259C18.962 3.90329 18.6732 3.58546 18.2901 3.5358L17.9877 3.49625L14.085 0.607761C13.3259 0.0451154 12.3671 -0.138998 11.4546 0.107016C11.1276 0.194328 10.9325 0.532728 11.0201 0.861251C11.1077 1.19032 11.4477 1.38547 11.771 1.29746C12.3202 1.15065 12.899 1.25903 13.3576 1.59929L15.7002 3.33317C15.2184 3.34189 14.7359 3.37415 14.254 3.44113C13.5197 3.54273 12.7837 3.69884 12.0913 3.90027L11.7204 3.97344C10.2842 4.25727 8.80314 4.26091 7.35263 3.98394L6.93408 3.90597C6.21707 3.69884 5.48044 3.54273 4.74562 3.44113C4.2637 3.37415 3.78108 3.34185 3.29916 3.33317L5.64208 1.59929C6.10048 1.25969 6.67925 1.15135 7.22855 1.29746C7.55361 1.38621 7.89167 1.19086 7.97938 0.861251C8.06697 0.532767 7.87216 0.194328 7.54497 0.107016C6.63304 -0.139541 5.67417 0.0450767 4.91463 0.607761L1.01115 3.49679L0.710657 3.5358C0.326315 3.58546 0.0380484 3.90403 0.0251277 4.29259L0.000404776 4.97985C-0.0100475 5.31012 0.18303 5.61125 0.451588 5.71406C0.566331 5.7743 0.640423 5.87524 0.647751 5.98432L0.73538 7.28087C0.889657 8.84554 2.1835 10.0553 3.74525 10.0955L5.18361 10.1333C6.25719 10.1333 7.24012 9.5837 7.81893 8.65349L8.97952 6.60655C9.05666 6.49076 9.26948 6.44916 9.4614 6.44916C9.46329 6.44916 9.54718 6.44796 9.54718 6.44796C9.73119 6.44796 9.9483 6.49754 10.01 6.58865L11.1879 8.66461C11.7605 9.58378 12.7435 10.1333 13.817 10.1333L15.2547 10.0955C16.8164 10.0553 18.1105 8.84554 18.266 7.27157L18.3529 5.9844C18.3603 5.87536 18.4338 5.77437 18.5176 5.72781C18.8169 5.61133 19.0107 5.31023 18.9995 4.97927L18.9756 4.29259ZM15.2962 4.71393C15.5145 4.71393 15.7059 4.72501 15.8663 4.74678C16.3846 4.81681 16.9177 5.16021 16.9412 5.7693L16.9936 7.09602C17.0114 7.54916 16.8512 7.98227 16.5438 8.31703C16.2364 8.65031 15.8195 8.84434 15.369 8.86178C15.369 8.86178 14.2404 8.90512 14.1775 8.90628C12.1208 8.90628 11.5383 6.84636 11.515 6.76269C11.4186 6.37719 11.4872 5.96515 11.7038 5.63178C11.921 5.29703 12.2689 5.06716 12.6589 5.00027C13.7856 4.80748 14.6483 4.71393 15.2962 4.71393ZM4.82627 8.90624C4.75962 8.90508 3.6317 8.86174 3.6317 8.86174C3.18071 8.84434 2.76354 8.65031 2.45619 8.31699C2.14898 7.98223 1.9885 7.54916 2.00635 7.09598L2.05877 5.76926C2.0823 5.16013 2.61544 4.81673 3.13377 4.74674C3.77236 4.66129 4.83622 4.7424 6.34103 5.00023C6.73105 5.06713 7.07894 5.29699 7.29628 5.63105C7.51273 5.96511 7.58131 6.37715 7.48562 6.75897C7.46159 6.84636 6.87919 8.90624 4.82627 8.90624Z" fill="#979FAD"/>
</svg>
