<svg width="15" height="15" viewBox="0 0 15 15" fill="none" xmlns="http://www.w3.org/2000/svg">
<path d="M7.5 0C3.3645 0 0 3.3645 0 7.5C0 11.6355 3.3645 15 7.5 15C11.6355 15 15 11.6355 15 7.5C15 3.3645 11.6355 0 7.5 0ZM7.5 13.4041C4.24449 13.4041 1.59572 10.7557 1.59572 7.5C1.59572 4.24434 4.24449 1.59587 7.5 1.59587C10.7555 1.59587 13.4043 4.24434 13.4043 7.5C13.4043 10.7557 10.7555 13.4041 7.5 13.4041Z" fill="#979FAD"/>
<path d="M11.4084 7.26841H8.03788V3.21582C8.03788 2.87478 7.76137 2.59828 7.42034 2.59828C7.0793 2.59828 6.8028 2.87478 6.8028 3.21582V7.88595C6.8028 8.22698 7.0793 8.50348 7.42034 8.50348H11.4084C11.7494 8.50348 12.0259 8.22698 12.0259 7.88595C12.0259 7.54491 11.7494 7.26841 11.4084 7.26841Z" fill="#979FAD"/>
</svg>
