<svg width="78" height="78" viewBox="0 0 78 78" fill="none" xmlns="http://www.w3.org/2000/svg">
<path d="M34.0783 12.6038C37.3701 11.9975 40.6273 11.9962 43.9241 12.6038C44.0383 12.6266 44.1525 12.6351 44.2655 12.6351C44.8762 12.6351 45.4573 12.3397 45.8139 11.8259C46.2378 11.2195 46.2659 10.4196 45.8875 9.78256L40.6213 0.921996C40.2798 0.350112 39.6648 0 38.9983 0C38.331 0 37.7161 0.350112 37.3751 0.921996L32.1095 9.78256C31.7305 10.4196 31.76 11.2195 32.1839 11.8259C32.6101 12.4355 33.345 12.7445 34.0783 12.6038ZM39.0007 5.58021L40.6864 8.41743C40.1218 8.38615 39.5591 8.37021 39.0007 8.37021C38.4416 8.37021 37.8794 8.38615 37.3144 8.41743L39.0007 5.58021Z" fill="#FFC001"/>
<path d="M77.076 37.3785L68.2157 32.1115C67.5807 31.7329 66.7794 31.763 66.1724 32.1857C65.5642 32.6097 65.2619 33.3495 65.3971 34.0779C65.7006 35.7189 65.8542 37.3746 65.8542 39.0005C65.8542 40.6262 65.6994 42.2813 65.3971 43.9229C65.2619 44.6515 65.5642 45.3913 66.1724 45.8153C66.4957 46.0401 66.8742 46.1545 67.2526 46.1545C67.5855 46.1545 67.9187 46.0671 68.2157 45.8891L77.076 40.6225C77.6487 40.2835 78 39.6668 78 39.0007C78 38.3346 77.6487 37.7171 77.076 37.3785ZM69.581 40.6877C69.6129 40.1237 69.6288 39.5609 69.6288 39.0007C69.6288 38.4403 69.6129 37.8777 69.581 37.3137L72.4181 39.0007L69.581 40.6877Z" fill="#FFC001"/>
<path d="M43.9241 65.3966C40.6273 66.0038 37.3713 66.0038 34.0783 65.3966C33.346 65.2567 32.6101 65.5663 32.1873 66.1733C31.7634 66.7805 31.7345 67.5802 32.1131 68.2166L37.3787 77.0772C37.7198 77.6499 38.3348 78 39.0019 78C39.6686 78 40.2847 77.6499 40.6251 77.0772L45.8926 68.2166C46.2709 67.5802 46.2414 66.7805 45.8175 66.1733C45.3925 65.5663 44.6516 65.2567 43.9241 65.3966ZM39.0007 72.4204L37.3144 69.5842C38.4436 69.6479 39.558 69.6479 40.6866 69.5842L39.0007 72.4204Z" fill="#FFC001"/>
<path d="M10.7488 46.1545C11.1272 46.1545 11.5051 46.0403 11.8282 45.8153C12.4358 45.3913 12.7393 44.6515 12.6047 43.9229C12.3 42.2813 12.1464 40.6262 12.1464 39.0005C12.1464 37.3749 12.3012 35.7191 12.6047 34.0779C12.7393 33.3495 12.4358 32.6097 11.8282 32.1857C11.2218 31.7642 10.4201 31.7355 9.78488 32.1115L0.924591 37.3785C0.350707 37.7171 0 38.3346 0 39.0005C0 39.6664 0.350707 40.2833 0.92338 40.6223L9.78367 45.8889C10.0821 46.0659 10.4153 46.1545 10.7488 46.1545ZM8.41858 40.6877L5.58145 39.0007L8.41858 37.3137C8.3873 37.8777 8.37076 38.4403 8.37076 39.0007C8.37055 39.5609 8.3871 40.1237 8.41858 40.6877Z" fill="#FFC001"/>
<path d="M66.5768 11.4223C66.106 10.9518 65.423 10.7681 64.7754 10.9265L54.7884 13.4695C54.0708 13.6532 53.5266 14.2382 53.3974 14.9681C53.2661 15.6967 53.5756 16.4353 54.1862 16.8542C56.9215 18.7331 59.2632 21.0743 61.1457 23.8139C61.5008 24.3307 62.0856 24.6316 62.6998 24.6316C62.8092 24.6316 62.9198 24.6219 63.0306 24.6027C63.7602 24.4719 64.3452 23.9281 64.5283 23.2111L67.0706 13.2234C67.2354 12.5774 67.0474 11.8929 66.5768 11.4223ZM61.8154 18.5707C61.0646 17.7314 60.2685 16.9345 59.4305 16.1851L62.63 15.3704L61.8154 18.5707Z" fill="#FFC001"/>
<path d="M54.7896 64.5317L64.7779 67.0751C64.9328 67.112 65.0874 67.1316 65.2424 67.1316C65.7376 67.1316 66.2192 66.9387 66.578 66.5799C67.0486 66.1093 67.2354 65.4248 67.0732 64.7797L64.5309 54.7913C64.3478 54.0747 63.7629 53.5293 63.033 53.3991C62.3058 53.27 61.5658 53.5799 61.1457 54.1879C59.2632 56.9281 56.9213 59.2701 54.1862 61.1476C53.5766 61.5677 53.2671 62.3049 53.3974 63.035C53.5278 63.7624 54.0732 64.3498 54.7896 64.5317ZM61.8154 59.4299L62.63 62.632L59.4305 61.8173C60.2685 61.0665 61.066 60.2704 61.8154 59.4299Z" fill="#FFC001"/>
<path d="M11.4234 66.5787C11.7816 66.9375 12.2638 67.1316 12.7584 67.1316C12.9144 67.1316 13.0706 67.1106 13.2235 67.0727L23.2112 64.5301C23.9288 64.3472 24.4738 63.7622 24.6034 63.0323C24.7341 62.3024 24.4246 61.5651 23.8138 61.1448C21.0787 59.2673 18.7374 56.9252 16.8549 54.1853C16.436 53.5769 15.6963 53.2673 14.9676 53.3963C14.2377 53.5278 13.6529 54.0723 13.4705 54.7885L10.9288 64.7775C10.7654 65.4238 10.9528 66.1081 11.4234 66.5787ZM16.184 59.4299C16.9354 60.2704 17.7303 61.0665 18.5695 61.8161L15.37 62.6308L16.184 59.4299Z" fill="#FFC001"/>
<path d="M14.9676 24.6039C15.0782 24.6243 15.1888 24.6328 15.2987 24.6328C15.9126 24.6328 16.4973 24.3317 16.8537 23.8151C18.736 21.0756 21.0773 18.7341 23.8126 16.8554C24.4232 16.4365 24.7323 15.6982 24.6013 14.9693C24.4724 14.2394 23.9274 13.6534 23.2098 13.4708L13.2221 10.9277C12.577 10.7681 11.8928 10.9518 11.422 11.4236C10.9526 11.8929 10.7654 12.5774 10.9286 13.2232L13.4703 23.2109C13.653 23.9281 14.2377 24.473 14.9676 24.6039ZM18.5695 16.1839C17.7303 16.9345 16.9352 17.7296 16.184 18.5695L15.37 15.368L18.5695 16.1839Z" fill="#FFC001"/>
<path d="M63.6795 39.0005C63.6795 25.3925 52.6089 14.3209 38.9995 14.3209C25.3909 14.3209 14.3209 25.3925 14.3209 39.0005C14.3209 52.6079 25.3921 63.6801 39.0009 63.6801C52.6087 63.6801 63.6795 52.6079 63.6795 39.0005ZM48.1179 57.7833C47.3743 58.1447 46.6113 58.4653 45.8237 58.7394C43.681 59.4816 41.3907 59.9053 38.9995 59.9053C36.6073 59.9053 34.3174 59.4814 32.1746 58.7394C31.3871 58.4653 30.6233 58.1447 29.8813 57.7833C25.6761 55.7339 22.2663 52.3239 20.2169 48.1204C19.8545 47.3782 19.5336 46.6128 19.261 45.8252C18.5183 43.6821 18.0943 41.3942 18.0943 39.0019C18.0943 36.6101 18.5183 34.3205 19.261 32.1787C19.5338 31.3898 19.8545 30.6255 20.2169 29.8833C22.2663 25.6797 25.6761 22.2698 29.8813 20.2204C30.6235 19.8589 31.3871 19.5383 32.1746 19.2651C34.3176 18.5215 36.6073 18.0989 38.9995 18.0989C41.3907 18.0989 43.681 18.5229 45.8237 19.2651C46.6113 19.5383 47.3745 19.8591 48.1179 20.2204C52.3225 22.2698 55.7321 25.6797 57.7817 29.8833C58.1443 30.6255 58.4649 31.3896 58.7376 32.1787C59.4821 34.3217 59.9049 36.6101 59.9049 39.0019C59.9049 41.3942 59.4799 43.6847 58.7376 45.8252C58.4647 46.6128 58.1443 47.3782 57.7817 48.1204C55.7321 52.3239 52.3223 55.7337 48.1179 57.7833Z" fill="#FFC001"/>
<path d="M46.9959 32.084C44.1501 32.084 44.1501 36.4977 46.9959 36.4977C49.8417 36.4977 49.8415 32.084 46.9959 32.084Z" fill="#FFC001"/>
<path d="M30.8105 32.084C27.9647 32.084 27.9647 36.4977 30.8105 36.4977C33.657 36.4977 33.6582 32.084 30.8105 32.084Z" fill="#FFC001"/>
<path d="M45.0227 38.4365C44.1431 38.4365 43.4033 39.0399 43.1943 39.8533C42.9828 39.9859 42.5554 40.1703 41.9262 40.3239C41.2654 40.4873 40.3793 40.6163 39.2723 40.6163C38.1653 40.6163 37.2793 40.4871 36.6176 40.3239C35.9884 40.1703 35.5608 39.9859 35.3508 39.8533C35.1419 39.0401 34.4016 38.4365 33.5224 38.4365C32.4791 38.4365 31.6351 39.283 31.6351 40.3239C31.6351 43.1343 35.471 44.391 39.2733 44.391C43.0762 44.391 46.9122 43.134 46.9122 40.3239C46.9098 39.2832 46.0647 38.4365 45.0227 38.4365Z" fill="#FFC001"/>
</svg>
